<svg id="Component_10_3" data-name="Component 10 – 3" xmlns="http://www.w3.org/2000/svg" width="35.617" height="35.617" viewBox="0 0 35.617 35.617">
  <path id="Subtraction_3" data-name="Subtraction 3" d="M-551.192-2589.383a17.692,17.692,0,0,1-12.592-5.216A17.691,17.691,0,0,1-569-2607.191a17.692,17.692,0,0,1,5.216-12.593A17.692,17.692,0,0,1-551.192-2625a17.692,17.692,0,0,1,12.592,5.216,17.692,17.692,0,0,1,5.216,12.593A17.691,17.691,0,0,1-538.6-2594.6,17.692,17.692,0,0,1-551.192-2589.383Zm-3.515-17.112v11.642h4.814v-11.642h3.178l.421-4.088h-3.6v-2.407a.984.984,0,0,1,1.021-1.115h2.588v-3.972l-3.567-.015c-3.581,0-4.857,2.51-4.857,4.858v2.648H-557v4.091Z" transform="translate(569 2625)" fill="#fff"/>
</svg>
