<svg id="Component_7_3" data-name="Component 7 – 3" xmlns="http://www.w3.org/2000/svg" width="35.753" height="35.753" viewBox="0 0 35.753 35.753">
  <path id="Subtraction_1" data-name="Subtraction 1" d="M-668.185-2588.3a17.83,17.83,0,0,1-8.691-2.466L-686-2588.3l2.465-8.938A17.923,17.923,0,0,1-686-2606.3a17.6,17.6,0,0,1,5.232-12.529,17.712,17.712,0,0,1,12.583-5.224,17.751,17.751,0,0,1,6.938,1.4,18.09,18.09,0,0,1,5.707,3.82,17.52,17.52,0,0,1,5.294,12.529,17.527,17.527,0,0,1-1.425,6.922,18.319,18.319,0,0,1-3.869,5.731,18.207,18.207,0,0,1-5.707,3.9A17.37,17.37,0,0,1-668.185-2588.3Zm-5.917-26.322h0a1.394,1.394,0,0,0-.986.37,4.921,4.921,0,0,0-1.726,2.651c-.424,1.818.233,4.05,1.849,6.287a18.4,18.4,0,0,0,10.11,7.336,5.961,5.961,0,0,0,1.63.242,4.793,4.793,0,0,0,2.562-.735,3.651,3.651,0,0,0,1.6-2.343l.185-.863a.624.624,0,0,0-.309-.678l-3.883-1.788a.585.585,0,0,0-.261-.062.6.6,0,0,0-.479.246l-1.541,1.973a.494.494,0,0,1-.346.147.472.472,0,0,1-.147-.024,11.993,11.993,0,0,1-6.473-5.548.473.473,0,0,1,.062-.493l1.48-1.665a.753.753,0,0,0,.123-.616l-1.788-4.007a.535.535,0,0,0-.493-.37l-1.171-.061Z" transform="translate(686 2624.056)" fill="#fff"/>
</svg>
