<svg id="Component_3_3" data-name="Component 3 – 3" xmlns="http://www.w3.org/2000/svg" width="22.147" height="17.403" viewBox="0 0 22.147 17.403">
  <path id="Path_2443" data-name="Path 2443" d="M13.278,66.8a7.971,7.971,0,0,0,3.22-2.342A5,5,0,0,0,16.5,58a7.974,7.974,0,0,0-3.22-2.342,11.309,11.309,0,0,0-4.439-.86,11.31,11.31,0,0,0-4.439.86A7.974,7.974,0,0,0,1.18,58,5.07,5.07,0,0,0,0,61.23a4.933,4.933,0,0,0,.892,2.813A7.336,7.336,0,0,0,3.34,66.265q-.125.3-.257.553a3.182,3.182,0,0,1-.314.483q-.182.233-.282.364t-.326.37q-.226.239-.289.314c0-.008-.017.011-.05.057s-.052.067-.057.063-.021.016-.05.062L1.67,68.6l-.031.063a.263.263,0,0,0-.025.075.491.491,0,0,0-.006.082.255.255,0,0,0,.013.082.417.417,0,0,0,.144.264.393.393,0,0,0,.257.1h.038a10.53,10.53,0,0,0,1.08-.2A10.562,10.562,0,0,0,6.63,67.457a12.609,12.609,0,0,0,2.21.2A11.3,11.3,0,0,0,13.278,66.8ZM6.253,65.75l-.553.389q-.352.238-.778.49l.44-1.055-1.218-.7a5.773,5.773,0,0,1-1.871-1.657,3.421,3.421,0,0,1-.665-1.984,3.568,3.568,0,0,1,.986-2.4,6.729,6.729,0,0,1,2.655-1.771,9.776,9.776,0,0,1,3.591-.653,9.776,9.776,0,0,1,3.591.653,6.732,6.732,0,0,1,2.656,1.771,3.411,3.411,0,0,1,0,4.8A6.727,6.727,0,0,1,12.43,65.4a9.774,9.774,0,0,1-3.591.653,10.874,10.874,0,0,1-1.921-.176Z" transform="translate(0 -54.801)" fill="#fff"/>
  <path id="Path_2444" data-name="Path 2444" d="M189.74,165.515a4.9,4.9,0,0,0-.05-5.707,7.442,7.442,0,0,0-2.562-2.235,6.462,6.462,0,0,1-.553,5.1,8.4,8.4,0,0,1-2.411,2.662,11.119,11.119,0,0,1-3.315,1.62,13.266,13.266,0,0,1-3.88.565q-.377,0-1.1-.05a10.551,10.551,0,0,0,5.926,1.657,12.618,12.618,0,0,0,2.21-.2,10.028,10.028,0,0,0,4.57,1.808.379.379,0,0,0,.276-.088.465.465,0,0,0,.163-.276c0-.05,0-.078.013-.082s.01-.031-.006-.081l-.025-.075-.031-.063a.605.605,0,0,0-.044-.069.551.551,0,0,0-.05-.063c-.012-.012-.031-.034-.056-.063s-.042-.048-.05-.056q-.063-.075-.289-.314t-.326-.37q-.1-.132-.283-.364a3.178,3.178,0,0,1-.314-.483q-.132-.251-.257-.552A7.363,7.363,0,0,0,189.74,165.515Z" transform="translate(-168.485 -153.331)" fill="#fff"/>
</svg>
