<svg id="Component_9_3" data-name="Component 9 – 3" xmlns="http://www.w3.org/2000/svg" width="35.753" height="35.753" viewBox="0 0 35.753 35.753">
  <path id="Subtraction_2" data-name="Subtraction 2" d="M-610.124-2588.246a17.76,17.76,0,0,1-12.641-5.236A17.761,17.761,0,0,1-628-2606.123a17.76,17.76,0,0,1,5.236-12.641A17.76,17.76,0,0,1-610.124-2624a17.76,17.76,0,0,1,12.641,5.236,17.76,17.76,0,0,1,5.236,12.641,17.761,17.761,0,0,1-5.236,12.641A17.759,17.759,0,0,1-610.124-2588.246Zm4.244-18.851c1.415,0,2.164,1,2.164,2.905v6.877h4.273v-7.37c0-3.622-1.839-5.784-4.919-5.784a4.222,4.222,0,0,0-3.851,2.123v-1.821h-4.274c.055,1.143.006,11.647,0,12.841v.01h4.273v-7.177a2.83,2.83,0,0,1,.141-1.041A2.347,2.347,0,0,1-605.879-2607.1Zm-13.241-3.07v12.852h4.271v-12.852Zm2.164-6.2a2.225,2.225,0,0,0-2.418,2.22,2.22,2.22,0,0,0,2.363,2.221h.028a2.224,2.224,0,0,0,2.417-2.221A2.217,2.217,0,0,0-616.956-2616.362Z" transform="translate(628 2624)" fill="#fff"/>
</svg>
