<svg id="Component_11_3" data-name="Component 11 – 3" xmlns="http://www.w3.org/2000/svg" width="35.501" height="35.501" viewBox="0 0 35.501 35.501">
  <path id="Subtraction_4" data-name="Subtraction 4" d="M-493.25-2590.5a17.635,17.635,0,0,1-12.552-5.2,17.634,17.634,0,0,1-5.2-12.552,17.635,17.635,0,0,1,5.2-12.552,17.635,17.635,0,0,1,12.552-5.2,17.635,17.635,0,0,1,12.552,5.2,17.635,17.635,0,0,1,5.2,12.552,17.634,17.634,0,0,1-5.2,12.552A17.635,17.635,0,0,1-493.25-2590.5Zm-10.806-10.834h0a12.022,12.022,0,0,0,6.5,1.906,11.956,11.956,0,0,0,12.073-12.073c0-.179,0-.358-.013-.549a8.545,8.545,0,0,0,2.118-2.2,8.459,8.459,0,0,1-2.437.668,4.239,4.239,0,0,0,1.866-2.347,8.514,8.514,0,0,1-2.694,1.03,4.263,4.263,0,0,0-3.1-1.339,4.248,4.248,0,0,0-4.243,4.243,4.236,4.236,0,0,0,.111.967,12.081,12.081,0,0,1-8.745-4.433,4.238,4.238,0,0,0-.575,2.133,4.239,4.239,0,0,0,1.888,3.531,4.24,4.24,0,0,1-1.922-.531v.054a4.253,4.253,0,0,0,3.4,4.16,4.246,4.246,0,0,1-1.118.148,4.347,4.347,0,0,1-.8-.075,4.242,4.242,0,0,0,3.964,2.946,8.464,8.464,0,0,1-5.27,1.817A8.539,8.539,0,0,1-504.056-2601.333Z" transform="translate(511 2626)" fill="#fff"/>
</svg>
