<svg id="Component_5_3" data-name="Component 5 – 3" xmlns="http://www.w3.org/2000/svg" width="19.273" height="16.704" viewBox="0 0 19.273 16.704">
  <path id="Path_2450" data-name="Path 2450" d="M18.52,39.863A2.476,2.476,0,0,0,16.7,39.11H14.455l-.512-1.365a1.864,1.864,0,0,0-.7-.848,1.788,1.788,0,0,0-1.039-.356H7.067a1.788,1.788,0,0,0-1.039.356,1.865,1.865,0,0,0-.7.848L4.818,39.11H2.57a2.476,2.476,0,0,0-1.817.753A2.476,2.476,0,0,0,0,41.68v8.994a2.475,2.475,0,0,0,.753,1.817,2.476,2.476,0,0,0,1.817.753H16.7a2.571,2.571,0,0,0,2.57-2.57V41.68A2.476,2.476,0,0,0,18.52,39.863Zm-5.707,9.491a4.331,4.331,0,0,1-3.177,1.32,4.331,4.331,0,0,1-3.177-1.32,4.483,4.483,0,0,1,0-6.354,4.331,4.331,0,0,1,3.177-1.32A4.331,4.331,0,0,1,12.814,43a4.483,4.483,0,0,1,0,6.354Z" transform="translate(0 -36.54)" fill="#0544a4"/>
</svg>
