<svg xmlns="http://www.w3.org/2000/svg" xmlns:xlink="http://www.w3.org/1999/xlink" width="136.695" height="38.47" viewBox="0 0 136.695 38.47">
  <defs>
    <linearGradient id="linear-gradient" x1="0.5" x2="0.5" y2="1" gradientUnits="objectBoundingBox">
      <stop offset="0" stop-color="#fff"/>
      <stop offset="0.288" stop-color="#efefef"/>
      <stop offset="0.478" stop-color="#bebebe"/>
      <stop offset="0.781" stop-color="#efefef"/>
      <stop offset="1" stop-color="#949494"/>
    </linearGradient>
    <linearGradient id="linear-gradient-2" x1="0" y1="0.467" x2="1" y2="0.462" xlink:href="#linear-gradient"/>
  </defs>
  <g id="Component_1_3" data-name="Component 1 – 3" transform="translate(0.5 0.421)">
    <path id="Path_2429" data-name="Path 2429" d="M-54.238-25.01l1.161,4.133h2.786V-38.339H-64.826v3.715h10.588a11.274,11.274,0,0,1-.6,4.249,9.672,9.672,0,0,1-2.067,3.437,9.643,9.643,0,0,1-3.367,2.3,11.825,11.825,0,0,1-4.6.836,10.531,10.531,0,0,1-4.9-1.091,10.7,10.7,0,0,1-3.553-2.926,13.038,13.038,0,0,1-2.183-4.226,16.729,16.729,0,0,1-.743-4.992,20.729,20.729,0,0,1,.65-5.178,13.877,13.877,0,0,1,2.02-4.5A10.42,10.42,0,0,1-70.051-49.9a10.454,10.454,0,0,1,5.178-1.207,13.514,13.514,0,0,1,3.506.441,9.647,9.647,0,0,1,2.949,1.324,7.771,7.771,0,0,1,2.183,2.252,8.676,8.676,0,0,1,1.207,3.274h4.412a13.405,13.405,0,0,0-1.742-4.992,11.715,11.715,0,0,0-3.158-3.413A12.868,12.868,0,0,0-59.788-54.2a19.986,19.986,0,0,0-5.085-.627,15.34,15.34,0,0,0-6.9,1.463,14.442,14.442,0,0,0-4.923,3.924A16.976,16.976,0,0,0-79.664-43.7a23.513,23.513,0,0,0-1,6.9,18.657,18.657,0,0,0,1.068,6.269A16.155,16.155,0,0,0-76.483-25.2,15.009,15.009,0,0,0-71.514-21.5a15.481,15.481,0,0,0,6.641,1.37,15.683,15.683,0,0,0,5.805-1.138A11.024,11.024,0,0,0-54.238-25.01Zm34.551-19.04h4.412a12.338,12.338,0,0,0-1.579-4.667,11.484,11.484,0,0,0-3.019-3.367,13.232,13.232,0,0,0-4.133-2.043,17.044,17.044,0,0,0-4.923-.7,15.868,15.868,0,0,0-6.757,1.37,13.964,13.964,0,0,0-4.923,3.738,16.4,16.4,0,0,0-3,5.55,22.122,22.122,0,0,0-1.022,6.8,23.381,23.381,0,0,0,.952,6.78,15.661,15.661,0,0,0,2.856,5.48,13.226,13.226,0,0,0,4.783,3.646A15.984,15.984,0,0,0-29.3-20.134q6.362,0,10.031-3.483t4.319-9.752h-4.412a12.652,12.652,0,0,1-.836,3.808,9.191,9.191,0,0,1-1.927,3.042,8.778,8.778,0,0,1-2.926,2,9.843,9.843,0,0,1-3.878.72,10.914,10.914,0,0,1-5.108-1.115,9.977,9.977,0,0,1-3.506-3,12.829,12.829,0,0,1-2.02-4.412,21.487,21.487,0,0,1-.65-5.364,19.209,19.209,0,0,1,.65-5.016,12.928,12.928,0,0,1,2.02-4.3,10.036,10.036,0,0,1,3.483-3,10.772,10.772,0,0,1,5.085-1.115,10.249,10.249,0,0,1,6.014,1.765A8.2,8.2,0,0,1-19.687-44.051Zm34.319,0h4.412a12.338,12.338,0,0,0-1.579-4.667,11.484,11.484,0,0,0-3.019-3.367,13.232,13.232,0,0,0-4.133-2.043,17.045,17.045,0,0,0-4.923-.7,15.868,15.868,0,0,0-6.757,1.37,13.964,13.964,0,0,0-4.923,3.738,16.4,16.4,0,0,0-3,5.55,22.122,22.122,0,0,0-1.022,6.8,23.381,23.381,0,0,0,.952,6.78A15.66,15.66,0,0,0-6.5-25.1a13.226,13.226,0,0,0,4.783,3.646,15.984,15.984,0,0,0,6.734,1.324q6.362,0,10.031-3.483t4.319-9.752H14.958a12.653,12.653,0,0,1-.836,3.808,9.191,9.191,0,0,1-1.927,3.042,8.778,8.778,0,0,1-2.926,2,9.843,9.843,0,0,1-3.878.72A10.914,10.914,0,0,1,.283-24.918a9.977,9.977,0,0,1-3.506-3,12.829,12.829,0,0,1-2.02-4.412,21.487,21.487,0,0,1-.65-5.364,19.209,19.209,0,0,1,.65-5.016A12.928,12.928,0,0,1-3.224-47,10.036,10.036,0,0,1,.259-50,10.772,10.772,0,0,1,5.345-51.11a10.249,10.249,0,0,1,6.014,1.765A8.2,8.2,0,0,1,14.633-44.051Z" transform="translate(116.826 54.825)" fill="url(#linear-gradient)"/>
    <g id="Group_1496" data-name="Group 1496" transform="translate(0 0.079)">
      <path id="Union_1" data-name="Union 1" d="M0,18.734A18.741,18.741,0,0,1,25.717,1.347a17.767,17.767,0,1,0,0,34.776A18.741,18.741,0,0,1,0,18.734Zm4.72,0A17.347,17.347,0,0,1,28.008,2.443l-.365,1a16.276,16.276,0,1,0,0,30.576l.365,1A17.347,17.347,0,0,1,4.72,18.734Zm1.552,0A15.781,15.781,0,0,1,29.967,5.073l-.471.816a14.845,14.845,0,1,0-7.435,27.692,14.747,14.747,0,0,0,7.435-2l.472.817a15.783,15.783,0,0,1-23.7-13.663Zm1.43,0A14.349,14.349,0,0,1,31.3,7.75l-.6.71a13.432,13.432,0,1,0,0,20.548l.6.71A14.35,14.35,0,0,1,7.7,18.734Zm6.018,9.891a11.131,11.131,0,0,0,13.905-3.062l4.354,1.478a12.919,12.919,0,0,1-18.26,1.584ZM18.834,7.6A11.072,11.072,0,0,0,13.72,8.844a12.921,12.921,0,0,1,18.259,1.583l-4.354,1.479A11.11,11.11,0,0,0,18.834,7.6Z" transform="translate(0 0)" stroke="rgba(0,0,0,0)" stroke-width="1" fill="url(#linear-gradient-2)"/>
    </g>
  </g>
</svg>
